<?xml version="1.0" standalone="no"?>
<!DOCTYPE svg PUBLIC "-//W3C//DTD SVG 20010904//EN"
 "http://www.w3.org/TR/2001/REC-SVG-20010904/DTD/svg10.dtd">
<svg version="1.0" xmlns="http://www.w3.org/2000/svg"
 width="256.000000pt" height="256.000000pt" viewBox="0 0 256.000000 256.000000"
 preserveAspectRatio="xMidYMid meet">
<metadata>
Created by potrace 1.11, written by Peter Selinger 2001-2013
</metadata>
<g transform="translate(0.000000,256.000000) scale(0.100000,-0.100000)"
fill="#000000" stroke="none">
<path d="M1968 2555 c-1 -2 -35 -6 -73 -9 -39 -3 -79 -8 -91 -10 -12 -2 -45
-7 -75 -11 -98 -12 -290 -66 -459 -127 -75 -27 -271 -130 -361 -189 -295 -194
-515 -443 -674 -764 -76 -153 -116 -259 -155 -411 -60 -232 -75 -365 -75 -674
0 -214 1 -227 23 -272 37 -75 63 -81 327 -84 244 -2 381 9 580 50 189 38 514
164 645 250 172 112 162 105 264 191 87 73 145 131 211 210 28 33 58 69 68 80
39 43 146 215 196 314 119 234 197 504 228 791 9 82 10 494 1 537 -10 53 -40
91 -82 110 -34 14 -79 17 -268 19 -124 2 -228 1 -230 -1z"/>
</g>
</svg>
